<mxfile host="app.diagrams.net" agent="Mozilla/5.0 (X11; Linux x86_64) AppleWebKit/537.36 (KHTML, like Gecko) Chrome/124.0.0.0 Safari/537.36" version="24.7.16">
  <diagram name="Page-1" id="jto-qtzXlHKbKDOFZij-">
    <mxGraphModel dx="2049" dy="1126" grid="1" gridSize="10" guides="1" tooltips="1" connect="1" arrows="1" fold="1" page="1" pageScale="1" pageWidth="850" pageHeight="1100" math="0" shadow="0">
      <root>
        <mxCell id="0" />
        <mxCell id="1" parent="0" />
        <mxCell id="kgj0ZtWSBMvPHDnNzbXX-2" value="" style="endArrow=none;html=1;rounded=0;" parent="1" edge="1">
          <mxGeometry width="50" height="50" relative="1" as="geometry">
            <mxPoint x="400" y="1070" as="sourcePoint" />
            <mxPoint x="400" y="20" as="targetPoint" />
          </mxGeometry>
        </mxCell>
        <mxCell id="kgj0ZtWSBMvPHDnNzbXX-3" value="" style="endArrow=none;html=1;rounded=0;" parent="1" edge="1">
          <mxGeometry width="50" height="50" relative="1" as="geometry">
            <mxPoint x="20" y="80" as="sourcePoint" />
            <mxPoint x="810" y="80" as="targetPoint" />
          </mxGeometry>
        </mxCell>
        <mxCell id="kgj0ZtWSBMvPHDnNzbXX-5" value="&lt;font style=&quot;font-size: 44px;&quot;&gt;Stack&lt;/font&gt;" style="text;html=1;align=center;verticalAlign=middle;whiteSpace=wrap;rounded=0;" parent="1" vertex="1">
          <mxGeometry x="70" y="20" width="330" height="60" as="geometry" />
        </mxCell>
        <mxCell id="kgj0ZtWSBMvPHDnNzbXX-6" value="&lt;span style=&quot;font-size: 44px;&quot;&gt;Heap&lt;/span&gt;" style="text;html=1;align=center;verticalAlign=middle;whiteSpace=wrap;rounded=0;" parent="1" vertex="1">
          <mxGeometry x="400" y="20" width="330" height="60" as="geometry" />
        </mxCell>
        <mxCell id="yrJoEXE7CaM3pGtu8LgF-7" style="edgeStyle=orthogonalEdgeStyle;rounded=0;orthogonalLoop=1;jettySize=auto;html=1;entryX=0;entryY=0.5;entryDx=0;entryDy=0;dashed=1;sketch=1;curveFitting=1;jiggle=2;opacity=50;" parent="1" source="yrJoEXE7CaM3pGtu8LgF-8" edge="1">
          <mxGeometry relative="1" as="geometry">
            <mxPoint x="1640" y="345" as="targetPoint" />
            <Array as="points">
              <mxPoint x="1160" y="345" />
              <mxPoint x="1160" y="840" />
              <mxPoint x="1600" y="840" />
              <mxPoint x="1600" y="345" />
            </Array>
          </mxGeometry>
        </mxCell>
        <mxCell id="EroMJwhKFGmw-tT6Kfco-45" style="edgeStyle=orthogonalEdgeStyle;rounded=0;orthogonalLoop=1;jettySize=auto;html=1;entryX=0;entryY=0.5;entryDx=0;entryDy=0;" edge="1" parent="1" source="yrJoEXE7CaM3pGtu8LgF-8" target="EroMJwhKFGmw-tT6Kfco-38">
          <mxGeometry relative="1" as="geometry" />
        </mxCell>
        <mxCell id="yrJoEXE7CaM3pGtu8LgF-8" value="" style="rounded=0;whiteSpace=wrap;html=1;" parent="1" vertex="1">
          <mxGeometry x="900" y="290" width="240" height="110" as="geometry" />
        </mxCell>
        <mxCell id="yrJoEXE7CaM3pGtu8LgF-9" value="" style="endArrow=none;html=1;rounded=0;entryX=0.5;entryY=0;entryDx=0;entryDy=0;exitX=0.5;exitY=1;exitDx=0;exitDy=0;" parent="1" source="yrJoEXE7CaM3pGtu8LgF-8" target="yrJoEXE7CaM3pGtu8LgF-8" edge="1">
          <mxGeometry width="50" height="50" relative="1" as="geometry">
            <mxPoint x="1000" y="370" as="sourcePoint" />
            <mxPoint x="1050" y="320" as="targetPoint" />
          </mxGeometry>
        </mxCell>
        <mxCell id="yrJoEXE7CaM3pGtu8LgF-10" value="&lt;font style=&quot;font-size: 20px;&quot;&gt;siguiente&lt;/font&gt;" style="text;html=1;align=center;verticalAlign=middle;whiteSpace=wrap;rounded=0;" parent="1" vertex="1">
          <mxGeometry x="1040" y="330" width="80" height="30" as="geometry" />
        </mxCell>
        <mxCell id="yrJoEXE7CaM3pGtu8LgF-11" value="" style="rounded=0;whiteSpace=wrap;html=1;" parent="1" vertex="1">
          <mxGeometry x="880" y="290" width="20" height="110" as="geometry" />
        </mxCell>
        <mxCell id="yrJoEXE7CaM3pGtu8LgF-12" value="&lt;span style=&quot;font-size: 20px;&quot;&gt;Nodo&lt;/span&gt;" style="rounded=0;whiteSpace=wrap;html=1;" parent="1" vertex="1">
          <mxGeometry x="880" y="250" width="260" height="40" as="geometry" />
        </mxCell>
        <mxCell id="yrJoEXE7CaM3pGtu8LgF-13" value="&lt;span style=&quot;font-size: 20px;&quot;&gt;dirección&lt;/span&gt;&lt;div&gt;&lt;span style=&quot;font-size: 20px;&quot;&gt;dato&lt;/span&gt;&lt;/div&gt;" style="rounded=0;whiteSpace=wrap;html=1;" parent="1" vertex="1">
          <mxGeometry x="900" y="290" width="120" height="110" as="geometry" />
        </mxCell>
        <mxCell id="yrJoEXE7CaM3pGtu8LgF-15" value="" style="rounded=0;whiteSpace=wrap;html=1;" parent="1" vertex="1">
          <mxGeometry x="1660" y="290" width="240" height="110" as="geometry" />
        </mxCell>
        <mxCell id="yrJoEXE7CaM3pGtu8LgF-16" value="" style="endArrow=none;html=1;rounded=0;entryX=0.5;entryY=0;entryDx=0;entryDy=0;exitX=0.5;exitY=1;exitDx=0;exitDy=0;" parent="1" source="yrJoEXE7CaM3pGtu8LgF-15" target="yrJoEXE7CaM3pGtu8LgF-15" edge="1">
          <mxGeometry width="50" height="50" relative="1" as="geometry">
            <mxPoint x="1760" y="370" as="sourcePoint" />
            <mxPoint x="1810" y="320" as="targetPoint" />
          </mxGeometry>
        </mxCell>
        <mxCell id="yrJoEXE7CaM3pGtu8LgF-17" value="&lt;font style=&quot;font-size: 20px;&quot;&gt;siguiente&lt;/font&gt;" style="text;html=1;align=center;verticalAlign=middle;whiteSpace=wrap;rounded=0;" parent="1" vertex="1">
          <mxGeometry x="1800" y="330" width="80" height="30" as="geometry" />
        </mxCell>
        <mxCell id="yrJoEXE7CaM3pGtu8LgF-18" value="" style="rounded=0;whiteSpace=wrap;html=1;" parent="1" vertex="1">
          <mxGeometry x="1640" y="290" width="20" height="110" as="geometry" />
        </mxCell>
        <mxCell id="yrJoEXE7CaM3pGtu8LgF-19" value="&lt;span style=&quot;font-size: 20px;&quot;&gt;Nodo&lt;/span&gt;" style="rounded=0;whiteSpace=wrap;html=1;" parent="1" vertex="1">
          <mxGeometry x="1640" y="250" width="260" height="40" as="geometry" />
        </mxCell>
        <mxCell id="yrJoEXE7CaM3pGtu8LgF-20" value="&lt;span style=&quot;font-size: 20px;&quot;&gt;dirección&lt;/span&gt;&lt;div&gt;&lt;span style=&quot;font-size: 20px;&quot;&gt;dato&lt;/span&gt;&lt;/div&gt;" style="rounded=0;whiteSpace=wrap;html=1;" parent="1" vertex="1">
          <mxGeometry x="1660" y="290" width="120" height="110" as="geometry" />
        </mxCell>
        <mxCell id="EroMJwhKFGmw-tT6Kfco-21" value="" style="rounded=0;whiteSpace=wrap;html=1;" vertex="1" parent="1">
          <mxGeometry x="500" y="205" width="220" height="170" as="geometry" />
        </mxCell>
        <mxCell id="EroMJwhKFGmw-tT6Kfco-22" value="&lt;span style=&quot;font-size: 20px;&quot;&gt;cantidad&lt;/span&gt;" style="text;html=1;align=center;verticalAlign=middle;whiteSpace=wrap;rounded=0;strokeColor=default;" vertex="1" parent="1">
          <mxGeometry x="500" y="285" width="220" height="40" as="geometry" />
        </mxCell>
        <mxCell id="EroMJwhKFGmw-tT6Kfco-44" style="edgeStyle=orthogonalEdgeStyle;rounded=0;orthogonalLoop=1;jettySize=auto;html=1;entryX=0;entryY=0.5;entryDx=0;entryDy=0;" edge="1" parent="1" source="EroMJwhKFGmw-tT6Kfco-23" target="yrJoEXE7CaM3pGtu8LgF-11">
          <mxGeometry relative="1" as="geometry" />
        </mxCell>
        <mxCell id="EroMJwhKFGmw-tT6Kfco-23" value="&lt;span style=&quot;font-size: 20px;&quot;&gt;principio&lt;/span&gt;" style="text;html=1;align=center;verticalAlign=middle;whiteSpace=wrap;rounded=0;strokeColor=default;" vertex="1" parent="1">
          <mxGeometry x="500" y="245" width="220" height="40" as="geometry" />
        </mxCell>
        <mxCell id="EroMJwhKFGmw-tT6Kfco-24" style="edgeStyle=orthogonalEdgeStyle;rounded=0;orthogonalLoop=1;jettySize=auto;html=1;" edge="1" parent="1" source="EroMJwhKFGmw-tT6Kfco-25" target="EroMJwhKFGmw-tT6Kfco-26">
          <mxGeometry relative="1" as="geometry">
            <mxPoint x="460" y="240" as="targetPoint" />
          </mxGeometry>
        </mxCell>
        <mxCell id="EroMJwhKFGmw-tT6Kfco-25" value="&lt;span style=&quot;font-size: 20px;&quot;&gt;Lista&lt;/span&gt;" style="rounded=0;whiteSpace=wrap;html=1;" vertex="1" parent="1">
          <mxGeometry x="160" y="260" width="120" height="60" as="geometry" />
        </mxCell>
        <mxCell id="EroMJwhKFGmw-tT6Kfco-26" value="" style="rounded=0;whiteSpace=wrap;html=1;" vertex="1" parent="1">
          <mxGeometry x="480" y="205" width="20" height="170" as="geometry" />
        </mxCell>
        <mxCell id="EroMJwhKFGmw-tT6Kfco-27" value="&lt;span style=&quot;font-size: 20px;&quot;&gt;Lista&lt;/span&gt;" style="rounded=0;whiteSpace=wrap;html=1;" vertex="1" parent="1">
          <mxGeometry x="480" y="160" width="240" height="45" as="geometry" />
        </mxCell>
        <mxCell id="EroMJwhKFGmw-tT6Kfco-29" style="edgeStyle=orthogonalEdgeStyle;rounded=0;orthogonalLoop=1;jettySize=auto;html=1;entryX=0.5;entryY=0;entryDx=0;entryDy=0;" edge="1" parent="1" source="EroMJwhKFGmw-tT6Kfco-28" target="yrJoEXE7CaM3pGtu8LgF-19">
          <mxGeometry relative="1" as="geometry" />
        </mxCell>
        <mxCell id="EroMJwhKFGmw-tT6Kfco-28" value="&lt;span style=&quot;font-size: 20px;&quot;&gt;final&lt;/span&gt;" style="text;html=1;align=center;verticalAlign=middle;whiteSpace=wrap;rounded=0;strokeColor=default;" vertex="1" parent="1">
          <mxGeometry x="500" y="205" width="220" height="40" as="geometry" />
        </mxCell>
        <mxCell id="EroMJwhKFGmw-tT6Kfco-53" style="edgeStyle=orthogonalEdgeStyle;rounded=0;orthogonalLoop=1;jettySize=auto;html=1;entryX=0;entryY=0.25;entryDx=0;entryDy=0;" edge="1" parent="1" source="EroMJwhKFGmw-tT6Kfco-35" target="yrJoEXE7CaM3pGtu8LgF-18">
          <mxGeometry relative="1" as="geometry" />
        </mxCell>
        <mxCell id="EroMJwhKFGmw-tT6Kfco-35" value="" style="rounded=0;whiteSpace=wrap;html=1;fillColor=#ffe6cc;strokeColor=#d79b00;" vertex="1" parent="1">
          <mxGeometry x="1280" y="290" width="240" height="110" as="geometry" />
        </mxCell>
        <mxCell id="EroMJwhKFGmw-tT6Kfco-36" value="" style="endArrow=none;html=1;rounded=0;entryX=0.5;entryY=0;entryDx=0;entryDy=0;exitX=0.5;exitY=1;exitDx=0;exitDy=0;fillColor=#ffe6cc;strokeColor=#d79b00;" edge="1" parent="1" source="EroMJwhKFGmw-tT6Kfco-35" target="EroMJwhKFGmw-tT6Kfco-35">
          <mxGeometry width="50" height="50" relative="1" as="geometry">
            <mxPoint x="1380" y="370" as="sourcePoint" />
            <mxPoint x="1430" y="320" as="targetPoint" />
          </mxGeometry>
        </mxCell>
        <mxCell id="EroMJwhKFGmw-tT6Kfco-37" value="&lt;font style=&quot;font-size: 20px;&quot;&gt;siguiente&lt;/font&gt;" style="text;html=1;align=center;verticalAlign=middle;whiteSpace=wrap;rounded=0;fillColor=#ffe6cc;strokeColor=#d79b00;" vertex="1" parent="1">
          <mxGeometry x="1420" y="330" width="80" height="30" as="geometry" />
        </mxCell>
        <mxCell id="EroMJwhKFGmw-tT6Kfco-38" value="" style="rounded=0;whiteSpace=wrap;html=1;fillColor=#ffe6cc;strokeColor=#d79b00;" vertex="1" parent="1">
          <mxGeometry x="1260" y="290" width="20" height="110" as="geometry" />
        </mxCell>
        <mxCell id="EroMJwhKFGmw-tT6Kfco-39" value="&lt;span style=&quot;font-size: 20px;&quot;&gt;Nodo&lt;/span&gt;" style="rounded=0;whiteSpace=wrap;html=1;fillColor=#ffe6cc;strokeColor=#d79b00;" vertex="1" parent="1">
          <mxGeometry x="1260" y="250" width="260" height="40" as="geometry" />
        </mxCell>
        <mxCell id="EroMJwhKFGmw-tT6Kfco-40" value="&lt;span style=&quot;font-size: 20px;&quot;&gt;dirección&lt;/span&gt;&lt;div&gt;&lt;span style=&quot;font-size: 20px;&quot;&gt;dato&lt;/span&gt;&lt;/div&gt;" style="rounded=0;whiteSpace=wrap;html=1;fillColor=#ffe6cc;strokeColor=#d79b00;" vertex="1" parent="1">
          <mxGeometry x="1280" y="290" width="120" height="110" as="geometry" />
        </mxCell>
        <mxCell id="EroMJwhKFGmw-tT6Kfco-48" style="edgeStyle=orthogonalEdgeStyle;rounded=0;orthogonalLoop=1;jettySize=auto;html=1;entryX=1;entryY=1;entryDx=0;entryDy=0;" edge="1" parent="1" source="EroMJwhKFGmw-tT6Kfco-47" target="yrJoEXE7CaM3pGtu8LgF-13">
          <mxGeometry relative="1" as="geometry" />
        </mxCell>
        <mxCell id="EroMJwhKFGmw-tT6Kfco-47" value="&lt;span style=&quot;font-size: 20px;&quot;&gt;Nodo actual&lt;/span&gt;" style="rounded=0;whiteSpace=wrap;html=1;" vertex="1" parent="1">
          <mxGeometry x="160" y="660" width="120" height="60" as="geometry" />
        </mxCell>
      </root>
    </mxGraphModel>
  </diagram>
</mxfile>
